<?xml version="1.0" encoding="UTF-8"?>
<svg width="700pt" height="700pt" version="1.1" fill="#fff" viewBox="0 0 700 700" xmlns="http://www.w3.org/2000/svg" xmlns:xlink="http://www.w3.org/1999/xlink">
 <g>
  <path d="m484.2 256.51c-8.043 0.039062-15.84 2.8008-22.109 7.8438v-0.92188c-0.003906-9.5273-3.793-18.664-10.531-25.402-6.7383-6.7422-15.875-10.531-25.402-10.535-8.043 0.035156-15.836 2.8008-22.109 7.8398v-0.92188c-0.011719-9.5234-3.8008-18.656-10.535-25.391-6.7344-6.7344-15.867-10.523-25.395-10.531-8.0469 0.039062-15.84 2.8047-22.113 7.8398v-73.496c0-12.832-6.8477-24.691-17.961-31.109-11.117-6.418-24.812-6.418-35.926 0-11.113 6.418-17.961 18.277-17.961 31.109v198.52c-19.531-36.328-42.629-46.48-56.254-49.141-12.992-2.5195-25.199 0.28125-31.062 7.125-18.344 21.34 4.3867 49.789 11.855 59.141 19.941 24.953 28.156 49.125 36.109 72.449 10.031 29.477 20.41 59.961 53.844 90.559v-0.003906c25.438 22.262 58.094 34.527 91.895 34.52 84.797 0 139.59-73.516 139.59-187.3v-66.258c-0.011718-9.5234-3.8008-18.656-10.535-25.391-6.7383-6.7344-15.867-10.523-25.395-10.535zm22.113 102.18c0 107.01-48.195 173.49-125.77 173.49-30.402 0.023437-59.777-10.984-82.676-30.984-30.715-28.105-40.066-55.602-49.98-84.711-8.332-24.473-16.941-49.773-38.383-76.621-23.051-28.852-14.867-38.383-12.18-41.508v0.003906c5.3164-3.4609 11.887-4.3984 17.957-2.5664 11.273 2.1836 39.613 13.523 59.246 71.418 0.027344 0.089844 0.10156 0.14453 0.12891 0.22266h0.003906c0.19922 0.44922 0.44531 0.875 0.73828 1.2734 0.19922 0.35156 0.42578 0.6875 0.67578 1 0.68359 0.55078 1.3945 1.0625 2.1367 1.5312 0.38281 0.14453 0.78125 0.25391 1.1875 0.32422 0.46484 0.14844 0.94531 0.24609 1.4336 0.28906 0.089843 0 0.15625 0.050781 0.24609 0.050781 0.35938-0.039062 0.71875-0.11328 1.0703-0.21875 0.375-0.015625 0.75-0.0625 1.1172-0.14453 0.085938 0 0.14062-0.10156 0.22266-0.12891h0.003906c0.43359-0.19922 0.84766-0.44141 1.2344-0.72266 0.37109-0.19922 0.72266-0.4375 1.0469-0.70312 0.28125-0.30859 0.53516-0.64062 0.75391-0.99219 0.59375-0.60938 0.97266-1.3945 1.0742-2.2422 0.15625-0.48828 0.26172-0.99219 0.30859-1.5039 0-0.078125 0.042969-0.15234 0.042969-0.23438v-232.18c0-7.9023 4.2148-15.203 11.062-19.156 6.8438-3.9492 15.273-3.9492 22.117 0 6.8438 3.9531 11.062 11.254 11.062 19.156v174.11c0.10547 3.7422 3.168 6.7148 6.9062 6.7148s6.8008-2.9727 6.9062-6.7148v-72.547c0-7.9023 4.2188-15.203 11.062-19.156 6.8438-3.9492 15.273-3.9492 22.117 0 6.8438 3.9531 11.062 11.254 11.062 19.156v72.547c0.10547 3.7422 3.168 6.7148 6.9062 6.7148 3.7383 0 6.8008-2.9727 6.9062-6.7148v-43.527c0-7.9023 4.2188-15.203 11.062-19.156 6.8438-3.9492 15.273-3.9492 22.117 0 6.8477 3.9531 11.062 11.254 11.062 19.156v58.242c0 3.8125 3.0898 6.9023 6.9023 6.9023 3.8164 0 6.9062-3.0898 6.9062-6.9023v-29.223c0-7.9023 4.2148-15.203 11.059-19.156 6.8477-3.9531 15.277-3.9531 22.121 0s11.062 11.254 11.062 19.156z"/>
  <path d="m249.93 235.14c3.2852 1.9375 7.5195 0.84375 9.457-2.4414s0.84766-7.5234-2.4414-9.4609c-24.203-14.152-41.75-37.387-48.734-64.539-6.9883-27.156-2.8359-55.973 11.531-80.051 14.367-24.078 37.758-41.418 64.973-48.16 27.215-6.7461 55.996-2.3398 79.945 12.242 23.945 14.578 41.078 38.125 47.582 65.398 6.5 27.273 1.8359 56.012-12.953 79.832-0.96875 1.5586-1.2734 3.4375-0.85156 5.2227 0.41797 1.7852 1.5312 3.332 3.0898 4.2969 3.2461 2.0117 7.5078 1.0078 9.5195-2.2422 16.676-26.922 21.906-59.387 14.539-90.184-7.3672-30.797-26.73-57.379-53.785-73.84-27.051-16.461-59.559-21.434-90.297-13.824-30.738 7.6133-57.164 27.184-73.41 54.367-16.246 27.184-20.965 59.727-13.109 90.402 7.8555 30.68 27.637 56.949 54.945 72.98z"/>
  <use x="70" y="644" xlink:href="#j"/>
  <use x="90.550781" y="644" xlink:href="#b"/>
  <use x="104.359375" y="644" xlink:href="#a"/>
  <use x="123.347656" y="644" xlink:href="#d"/>
  <use x="142.242188" y="644" xlink:href="#c"/>
  <use x="155.628906" y="644" xlink:href="#a"/>
  <use x="174.617188" y="644" xlink:href="#f"/>
  <use x="204.410156" y="644" xlink:href="#m"/>
  <use x="224.453125" y="644" xlink:href="#l"/>
  <use x="252.453125" y="644" xlink:href="#k"/>
  <use x="273.792969" y="644" xlink:href="#i"/>
  <use x="283.390625" y="644" xlink:href="#b"/>
  <use x="297.199219" y="644" xlink:href="#h"/>
  <use x="313.796875" y="644" xlink:href="#v"/>
  <use x="332.417969" y="644" xlink:href="#g"/>
  <use x="352.351562" y="644" xlink:href="#a"/>
  <use x="371.34375" y="644" xlink:href="#d"/>
  <use x="390.234375" y="644" xlink:href="#f"/>
  <use x="420.027344" y="644" xlink:href="#j"/>
  <use x="440.578125" y="644" xlink:href="#b"/>
  <use x="454.382812" y="644" xlink:href="#a"/>
  <use x="473.375" y="644" xlink:href="#d"/>
  <use x="492.269531" y="644" xlink:href="#c"/>
  <use x="505.65625" y="644" xlink:href="#i"/>
  <use x="515.25" y="644" xlink:href="#u"/>
  <use x="533.503906" y="644" xlink:href="#a"/>
  <use x="70" y="672" xlink:href="#t"/>
  <use x="82.183594" y="672" xlink:href="#b"/>
  <use x="95.992188" y="672" xlink:href="#e"/>
  <use x="115.226562" y="672" xlink:href="#s"/>
  <use x="154.152344" y="672" xlink:href="#c"/>
  <use x="167.535156" y="672" xlink:href="#g"/>
  <use x="187.46875" y="672" xlink:href="#a"/>
  <use x="216.207031" y="672" xlink:href="#r"/>
  <use x="239.640625" y="672" xlink:href="#e"/>
  <use x="258.878906" y="672" xlink:href="#q"/>
  <use x="278.8125" y="672" xlink:href="#p"/>
  <use x="308.492188" y="672" xlink:href="#o"/>
  <use x="329.015625" y="672" xlink:href="#b"/>
  <use x="342.820312" y="672" xlink:href="#e"/>
  <use x="362.058594" y="672" xlink:href="#n"/>
  <use x="371.65625" y="672" xlink:href="#a"/>
  <use x="390.648438" y="672" xlink:href="#h"/>
  <use x="407.242188" y="672" xlink:href="#c"/>
 </g>
</svg>
