<svg width="394" height="646" viewBox="0 0 394 646" fill="none" xmlns="http://www.w3.org/2000/svg">
<path d="M32 244H362C376.359 244 388 255.641 388 270V504C388 579.111 327.111 640 252 640H142C66.8893 640 6 579.111 6 504V270C6 255.641 17.6406 244 32 244Z" stroke="white" stroke-width="12"/>
<path d="M237 6H252C327.111 6 388 66.8893 388 142V182C388 196.359 376.359 208 362 208H237C222.641 208 211 196.359 211 182V32C211 17.6406 222.641 6 237 6Z" stroke="white" stroke-width="12"/>
<path d="M142 6H157C171.359 6 183 17.6406 183 32V182C183 196.359 171.359 208 157 208H32C17.6406 208 6 196.359 6 182V142C6 66.8893 66.8893 6 142 6Z" stroke="white" stroke-width="12"/>
<path d="M175 74.5V139.5C175 151.374 184.626 161 196.5 161C208.374 161 218 151.374 218 139.5V74.5C218 62.6259 208.374 53 196.5 53C184.626 53 175 62.6259 175 74.5Z" fill="white" stroke="white" stroke-width="12"/>
</svg>
