<?xml version="1.0" encoding="UTF-8"?>
<svg width="700pt" height="700pt" version="1.1" fill="#fff" viewBox="0 0 700 700" xmlns="http://www.w3.org/2000/svg" xmlns:xlink="http://www.w3.org/1999/xlink">
 <g>
  <path d="m504.73 274.02c-7.3242 0.023438-14.441 2.4258-20.277 6.8477-0.027343-9.0234-3.625-17.672-10.012-24.047-6.3828-6.375-15.035-9.9648-24.059-9.9766-7.332 0.011719-14.461 2.4141-20.309 6.8359-0.023437-9.0234-3.625-17.672-10.008-24.051-6.3867-6.375-15.043-9.9609-24.066-9.9727-7.3125 0.027344-14.414 2.4336-20.242 6.8477v-67.871c0-12.18-6.4961-23.43-17.043-29.516-10.543-6.0898-23.535-6.0898-34.082 0-10.543 6.0859-17.039 17.336-17.039 29.516v184.24c-18.207-32.957-39.508-42.332-52.164-44.801-12.32-2.3867-23.902 0.29297-29.508 6.8164-17.41 20.254 4.0469 47.113 11.098 55.945 18.609 23.309 26.32 45.879 33.734 67.715 9.4141 27.652 19.152 56.254 50.551 84.992l0.003906-0.003906c23.902 20.938 54.594 32.473 86.367 32.465 79.676 0 131.15-69.02 131.15-175.84v-62.059c-0.007812-9.0391-3.6055-17.707-10-24.098-6.3906-6.3867-15.059-9.9805-24.098-9.9844zm20.266 96.141c0 99.941-44.961 162.03-117.34 162.03-28.363 0.015625-55.766-10.262-77.129-28.918-28.684-26.254-37.43-51.953-46.688-79.156-7.8398-22.961-15.898-46.68-36.023-71.883-21.363-26.746-13.871-35.453-11.418-38.316 4.875-3.1172 10.871-3.9375 16.402-2.2383 10.484 2.0312 36.848 12.594 55.16 66.59 0 0.089844 0.10156 0.14453 0.12891 0.23047 0.40625 1.2695 1.2656 2.3516 2.4141 3.0352 0.34766 0.29297 0.72266 0.55078 1.1211 0.76953 0.36328 0.13281 0.73828 0.23437 1.1172 0.30469 0.48437 0.16016 0.98828 0.26172 1.4961 0.30078 0.085938 0 0.15625 0.050782 0.24219 0.050782 0.73438-0.17969 1.4844-0.30078 2.2383-0.36328 0.085938 0 0.14062-0.09375 0.22266-0.12891 0.4375-0.19531 0.85547-0.4375 1.2383-0.72266 0.37109-0.19922 0.72266-0.43359 1.0469-0.69922 0.28125-0.30859 0.53125-0.64453 0.75-0.99609 0.29688-0.34766 0.55859-0.72266 0.77344-1.1211 0.26172-0.85547 0.46484-1.7305 0.60547-2.6172 0-0.085938 0.050781-0.15625 0.050781-0.24219v-217.44c0-7.2422 3.8633-13.934 10.133-17.555 6.2695-3.6172 13.996-3.6172 20.266 0 6.2734 3.6211 10.133 10.312 10.133 17.555v163.05c-0.050781 1.8633 0.65234 3.6719 1.9531 5.0117 1.3008 1.3398 3.0898 2.0938 4.957 2.0938 1.8672 0 3.6523-0.75391 4.9531-2.0938 1.3008-1.3398 2.0078-3.1484 1.9531-5.0117v-67.941c0-7.2383 3.8633-13.93 10.133-17.551 6.2695-3.6211 13.996-3.6211 20.266 0 6.2734 3.6211 10.137 10.312 10.137 17.551v67.941c-0.054687 1.8633 0.64844 3.6719 1.9492 5.0117 1.3008 1.3398 3.0898 2.0938 4.957 2.0938 1.8672 0 3.6523-0.75391 4.9531-2.0938 1.3047-1.3398 2.0078-3.1484 1.9531-5.0117v-40.758c0-7.2422 3.8633-13.934 10.137-17.555 6.2734-3.6211 14-3.6211 20.273 0 6.2695 3.6211 10.133 10.312 10.133 17.555v54.539c0 3.8125 3.0938 6.9023 6.9062 6.9023s6.9062-3.0898 6.9062-6.9023v-27.367c0.11719-7.1602 4.0078-13.73 10.23-17.277s13.855-3.5469 20.078 0c6.2188 3.5469 10.109 10.117 10.23 17.277z"/>
  <path d="m288.63 204.63c2.6094 0 4.9961-1.4688 6.168-3.7969 1.1758-2.3281 0.93359-5.1211-0.61719-7.2188-7.5312-10.105-11.598-22.375-11.586-34.98-0.21875-15.812 5.9102-31.051 17.012-42.305 11.105-11.258 26.258-17.598 42.066-17.598 15.812 0 30.965 6.3398 42.066 17.598 11.105 11.254 17.23 26.492 17.016 42.305 0.015625 12.598-4.0352 24.867-11.555 34.98-1.125 1.4727-1.6094 3.3359-1.3516 5.168 0.26172 1.8359 1.2461 3.4883 2.7383 4.5898 1.4883 1.0977 3.3594 1.5547 5.1875 1.2656 1.832-0.29297 3.4648-1.3047 4.543-2.8125 10.754-14.543 15.719-32.562 13.926-50.559-1.7891-17.996-10.203-34.688-23.609-46.824-13.406-12.141-30.848-18.863-48.934-18.863-18.086 0-35.523 6.7227-48.93 18.863-13.406 12.137-21.824 28.828-23.613 46.824s3.1758 36.016 13.93 50.559c1.3008 1.7617 3.3555 2.8008 5.543 2.8047z"/>
  <path d="m237.28 386.45c-19.105-4.25-34.863-17.691-42.078-35.883-7.2148-18.195-4.9492-38.781 6.0469-54.973s29.301-25.883 48.871-25.883c12.379-0.007813 24.441 3.9023 34.465 11.168 1.4805 1.1562 3.3672 1.6602 5.2266 1.3945 1.8594-0.26563 3.5312-1.2734 4.6289-2.7969 1.0977-1.5234 1.5312-3.4297 1.1953-5.2773-0.33594-1.8477-1.4062-3.4805-2.9727-4.5195-14.578-10.52-32.531-15.277-50.406-13.352-17.875 1.9219-34.406 10.387-46.414 23.77-12.004 13.379-18.641 30.73-18.621 48.707 0.082031 16.555 5.7695 32.594 16.129 45.508s24.785 21.941 40.93 25.613c3.7227 0.82812 7.4141-1.5195 8.2422-5.2422 0.82812-3.7266-1.5195-7.4141-5.2422-8.2461z"/>
  <path d="m382.76 82.273c1.6094 0.875 3.5 1.0703 5.2578 0.54297 1.7539-0.52344 3.2266-1.7266 4.0938-3.3398l21.84-40.594 3.1523 10.5v-0.003906c0.87891 2.9219 3.5664 4.9219 6.6172 4.9258 0.67578-0.003907 1.3438-0.10156 1.9883-0.29297 3.6562-1.1016 5.7266-4.9531 4.6328-8.6055l-7.9531-26.477c0-0.054688-0.0625-0.09375-0.078125-0.14453v-0.003906c-1.1406-3.5781-4.9453-5.5742-8.5391-4.4805l-26.461 7.9531c-1.7812 0.50391-3.2891 1.7031-4.1797 3.3281-0.89062 1.625-1.0938 3.5391-0.55859 5.3125 0.53516 1.7734 1.7578 3.2617 3.3984 4.125s3.5547 1.0312 5.3203 0.46875l10.496-3.1523-21.84 40.59v-0.003906c-0.87109 1.6133-1.0625 3.5078-0.53516 5.2617 0.52734 1.7539 1.7305 3.2266 3.3477 4.0898z"/>
  <path d="m209.07 405.09c-3.3555-1.8047-7.543-0.55469-9.3555 2.8008l-21.84 40.602-3.1602-10.488c-1.0977-3.6523-4.9531-5.7266-8.6094-4.625-3.6562 1.0977-5.7266 4.9531-4.6289 8.6094l7.9531 26.465c0.25 0.79297 0.64062 1.5352 1.1523 2.1875 0.14062 0.17969 0.32031 0.30859 0.47656 0.47656 0.41797 0.46094 0.89844 0.85547 1.4219 1.1836 0.11328 0.066406 0.17969 0.18359 0.29688 0.24609s0.24219 0.035157 0.35156 0.089844h0.003907c0.89844 0.45312 1.8867 0.70312 2.8945 0.73438h0.078125c0.61719-0.007812 1.2305-0.097656 1.8242-0.26953h0.089844l26.465-7.9531c1.7852-0.50391 3.2891-1.7031 4.1797-3.3281 0.89453-1.625 1.0938-3.5391 0.55859-5.3125-0.53125-1.7734-1.7578-3.2617-3.3945-4.125-1.6406-0.86328-3.5586-1.0312-5.3242-0.46484l-10.496 3.1523 21.84-40.602h0.003907c0.87891-1.6133 1.0781-3.5078 0.55859-5.2656-0.52344-1.7617-1.7227-3.2422-3.3398-4.1133z"/>
  <use x="70" y="644" xlink:href="#j"/>
  <use x="90.550781" y="644" xlink:href="#b"/>
  <use x="104.359375" y="644" xlink:href="#a"/>
  <use x="123.347656" y="644" xlink:href="#d"/>
  <use x="142.242188" y="644" xlink:href="#c"/>
  <use x="155.628906" y="644" xlink:href="#a"/>
  <use x="174.617188" y="644" xlink:href="#f"/>
  <use x="204.410156" y="644" xlink:href="#m"/>
  <use x="224.453125" y="644" xlink:href="#l"/>
  <use x="252.453125" y="644" xlink:href="#k"/>
  <use x="273.792969" y="644" xlink:href="#i"/>
  <use x="283.390625" y="644" xlink:href="#b"/>
  <use x="297.199219" y="644" xlink:href="#h"/>
  <use x="313.796875" y="644" xlink:href="#v"/>
  <use x="332.417969" y="644" xlink:href="#g"/>
  <use x="352.351562" y="644" xlink:href="#a"/>
  <use x="371.34375" y="644" xlink:href="#d"/>
  <use x="390.234375" y="644" xlink:href="#f"/>
  <use x="420.027344" y="644" xlink:href="#j"/>
  <use x="440.578125" y="644" xlink:href="#b"/>
  <use x="454.382812" y="644" xlink:href="#a"/>
  <use x="473.375" y="644" xlink:href="#d"/>
  <use x="492.269531" y="644" xlink:href="#c"/>
  <use x="505.65625" y="644" xlink:href="#i"/>
  <use x="515.25" y="644" xlink:href="#u"/>
  <use x="533.503906" y="644" xlink:href="#a"/>
  <use x="70" y="672" xlink:href="#t"/>
  <use x="82.183594" y="672" xlink:href="#b"/>
  <use x="95.992188" y="672" xlink:href="#e"/>
  <use x="115.226562" y="672" xlink:href="#s"/>
  <use x="154.152344" y="672" xlink:href="#c"/>
  <use x="167.535156" y="672" xlink:href="#g"/>
  <use x="187.46875" y="672" xlink:href="#a"/>
  <use x="216.207031" y="672" xlink:href="#r"/>
  <use x="239.640625" y="672" xlink:href="#e"/>
  <use x="258.878906" y="672" xlink:href="#q"/>
  <use x="278.8125" y="672" xlink:href="#p"/>
  <use x="308.492188" y="672" xlink:href="#o"/>
  <use x="329.015625" y="672" xlink:href="#b"/>
  <use x="342.820312" y="672" xlink:href="#e"/>
  <use x="362.058594" y="672" xlink:href="#n"/>
  <use x="371.65625" y="672" xlink:href="#a"/>
  <use x="390.648438" y="672" xlink:href="#h"/>
  <use x="407.242188" y="672" xlink:href="#c"/>
 </g>
</svg>
