<?xml version="1.0" encoding="UTF-8"?>
<svg width="700pt" height="700pt" version="1.1" fill="#fff" viewBox="0 0 700 700" xmlns="http://www.w3.org/2000/svg" xmlns:xlink="http://www.w3.org/1999/xlink">
 <g>
  <path d="m484.2 256.51c-8.043 0.039062-15.84 2.8008-22.109 7.8438v-0.92188c-0.003906-9.5273-3.793-18.664-10.531-25.402-6.7383-6.7422-15.875-10.531-25.402-10.535-8.043 0.035156-15.836 2.8008-22.109 7.8398v-102.48c0.035157-10.758-4.7656-20.957-13.074-27.785-8.3125-6.8281-19.25-9.5586-29.797-7.4375-10.543 2.1211-19.574 8.8711-24.598 18.383-6.5078-7.2383-15.676-11.512-25.402-11.844-9.7266-0.33203-19.168 3.3086-26.152 10.086-6.9844 6.7773-10.906 16.105-10.867 25.836v191.26c-19.531-36.328-42.629-46.48-56.254-49.141-12.996-2.5195-25.199 0.28125-31.062 7.125-18.344 21.34 4.3867 49.789 11.855 59.141 19.941 24.953 28.156 49.125 36.109 72.449 10.031 29.477 20.41 59.961 53.844 90.559v-0.003906c25.438 22.262 58.094 34.527 91.895 34.52 84.797 0 139.59-73.516 139.59-187.3v-66.258c-0.011718-9.5234-3.8008-18.656-10.535-25.391-6.7383-6.7344-15.867-10.523-25.395-10.535zm22.113 102.18c0 107.01-48.195 173.49-125.77 173.49-30.402 0.023437-59.777-10.984-82.676-30.984-30.715-28.105-40.066-55.602-49.98-84.711-8.332-24.473-16.941-49.773-38.383-76.621-23.051-28.852-14.867-38.383-12.18-41.508v0.003906c5.3164-3.4609 11.887-4.3984 17.957-2.5664 11.273 2.1836 39.613 13.523 59.246 71.418 0.027344 0.089844 0.10156 0.14453 0.12891 0.23047h0.003906c0.19531 0.43359 0.4375 0.84766 0.72266 1.2305 0.35156 0.78125 0.95703 1.4219 1.7188 1.8203 0.34766 0.28516 0.72266 0.53516 1.1211 0.75 0.375 0.14062 0.76172 0.24609 1.1562 0.3125 0.47266 0.15625 0.96094 0.25391 1.457 0.29688 0.089844 0 0.15625 0.050781 0.24609 0.050781 0.36328-0.039062 0.72266-0.11328 1.0742-0.21875 0.37891-0.015625 0.75391-0.0625 1.1211-0.14453 0.085938 0 0.14062-0.10156 0.22266-0.12891 0.4375-0.19922 0.85156-0.44141 1.2383-0.72266 0.37109-0.19922 0.72266-0.4375 1.0469-0.70312 0.28125-0.30859 0.53516-0.64062 0.75-0.99219 0.59766-0.60938 0.97656-1.3945 1.0781-2.2422 0.15625-0.48828 0.26172-0.99219 0.30859-1.5039 0-0.078125 0.042969-0.15234 0.042969-0.23438v-224.96c0-7.9023 4.2148-15.203 11.059-19.156 6.8438-3.9492 15.277-3.9492 22.121 0 6.8438 3.9531 11.059 11.254 11.059 19.156v166.88c0.10938 3.7383 3.168 6.7109 6.9102 6.7109 3.7383 0 6.8008-2.9727 6.9062-6.7109v-174.1c0-7.9023 4.2148-15.203 11.062-19.156 6.8438-3.9492 15.273-3.9492 22.117 0 6.8438 3.9531 11.062 11.254 11.062 19.156v174.11c0.10547 3.7422 3.168 6.7148 6.9062 6.7148s6.8008-2.9727 6.9062-6.7148v-43.527c0-7.9023 4.2188-15.203 11.062-19.156 6.8438-3.9492 15.273-3.9492 22.117 0 6.8438 3.9531 11.062 11.254 11.062 19.156v58.242c0 3.8125 3.0898 6.9023 6.9023 6.9023 3.8164 0 6.9062-3.0898 6.9062-6.9023v-29.223c0-7.9023 4.2148-15.203 11.059-19.156s15.277-3.9531 22.121 0 11.059 11.254 11.059 19.156z"/>
  <path d="m249.08 276.55c2.9648 2.3008 7.2266 1.8125 9.5938-1.1016 2.3672-2.9102 1.9805-7.1797-0.875-9.6172-26.379-21.359-43.68-51.922-48.414-85.531-4.7344-33.609 3.4453-67.766 22.895-95.582s48.719-47.227 81.914-54.32c33.191-7.0898 67.84-1.332 96.957 16.109 29.117 17.441 50.539 45.273 59.949 77.887 9.4102 32.609 6.1055 67.574-9.2422 97.848-1.5625 3.3789-0.17188 7.3828 3.1484 9.0664 3.3203 1.6836 7.3711 0.43359 9.1719-2.8203 10.535-20.633 16.012-43.477 15.984-66.641 0.007813-50.73-25.992-97.918-68.883-125.01-42.887-27.094-96.668-30.309-142.48-8.5117-45.809 21.793-77.242 65.555-83.273 115.92s14.184 100.31 53.551 132.3z"/>
  <use x="70" y="644" xlink:href="#j"/>
  <use x="90.550781" y="644" xlink:href="#b"/>
  <use x="104.359375" y="644" xlink:href="#a"/>
  <use x="123.347656" y="644" xlink:href="#d"/>
  <use x="142.242188" y="644" xlink:href="#c"/>
  <use x="155.628906" y="644" xlink:href="#a"/>
  <use x="174.617188" y="644" xlink:href="#f"/>
  <use x="204.410156" y="644" xlink:href="#m"/>
  <use x="224.453125" y="644" xlink:href="#l"/>
  <use x="252.453125" y="644" xlink:href="#k"/>
  <use x="273.792969" y="644" xlink:href="#i"/>
  <use x="283.390625" y="644" xlink:href="#b"/>
  <use x="297.199219" y="644" xlink:href="#h"/>
  <use x="313.796875" y="644" xlink:href="#v"/>
  <use x="332.417969" y="644" xlink:href="#g"/>
  <use x="352.351562" y="644" xlink:href="#a"/>
  <use x="371.34375" y="644" xlink:href="#d"/>
  <use x="390.234375" y="644" xlink:href="#f"/>
  <use x="420.027344" y="644" xlink:href="#j"/>
  <use x="440.578125" y="644" xlink:href="#b"/>
  <use x="454.382812" y="644" xlink:href="#a"/>
  <use x="473.375" y="644" xlink:href="#d"/>
  <use x="492.269531" y="644" xlink:href="#c"/>
  <use x="505.65625" y="644" xlink:href="#i"/>
  <use x="515.25" y="644" xlink:href="#u"/>
  <use x="533.503906" y="644" xlink:href="#a"/>
  <use x="70" y="672" xlink:href="#t"/>
  <use x="82.183594" y="672" xlink:href="#b"/>
  <use x="95.992188" y="672" xlink:href="#e"/>
  <use x="115.226562" y="672" xlink:href="#s"/>
  <use x="154.152344" y="672" xlink:href="#c"/>
  <use x="167.535156" y="672" xlink:href="#g"/>
  <use x="187.46875" y="672" xlink:href="#a"/>
  <use x="216.207031" y="672" xlink:href="#r"/>
  <use x="239.640625" y="672" xlink:href="#e"/>
  <use x="258.878906" y="672" xlink:href="#q"/>
  <use x="278.8125" y="672" xlink:href="#p"/>
  <use x="308.492188" y="672" xlink:href="#o"/>
  <use x="329.015625" y="672" xlink:href="#b"/>
  <use x="342.820312" y="672" xlink:href="#e"/>
  <use x="362.058594" y="672" xlink:href="#n"/>
  <use x="371.65625" y="672" xlink:href="#a"/>
  <use x="390.648438" y="672" xlink:href="#h"/>
  <use x="407.242188" y="672" xlink:href="#c"/>
 </g>
</svg>
