<svg width="394" height="646" viewBox="0 0 394 646" fill="none" xmlns="http://www.w3.org/2000/svg">
<path d="M32 244H362C376.359 244 388 255.641 388 270V504C388 579.111 327.111 640 252 640H142C66.8893 640 6 579.111 6 504V270C6 255.641 17.6406 244 32 244Z" stroke="white" stroke-width="12"/>
<path d="M237 6H252C327.111 6 388 66.8893 388 142V182C388 196.359 376.359 208 362 208H237C222.641 208 211 196.359 211 182V32C211 17.6406 222.641 6 237 6Z" stroke="white" stroke-width="12"/>
<path d="M142 6H157C171.359 6 183 17.6406 183 32V182C183 196.359 171.359 208 157 208H32C17.6406 208 6 196.359 6 182V142C6 66.8893 66.8893 6 142 6Z" stroke="white" stroke-width="12"/>
<path d="M168 72.5V142.5C168 158.24 180.76 171 196.5 171C212.24 171 225 158.24 225 142.5V72.5C225 56.7599 212.24 44 196.5 44C180.76 44 168 56.7599 168 72.5Z" fill="white" stroke="white" stroke-width="12"/>
</svg>
